/* XPM */
static char *_4b57d46e28940eeaafc98e226d0a08cEoTK49LSWhhYm94s[] = {
/* columns rows colors chars-per-pixel */
"50 50 39 1 ",
"  c #454545",
". c #484747",
"X c #474847",
"o c #484847",
"O c #474748",
"+ c #484748",
"@ c #494949",
"# c #4F504F",
"$ c #50514F",
"% c #535352",
"& c #565955",
"* c #585A57",
"= c #575658",
"- c #5B5B5A",
"; c #5F615E",
": c #60615F",
"> c #5F5D60",
", c #615F62",
"< c #646365",
"1 c #666966",
"2 c #676468",
"3 c #696769",
"4 c #6C6B6C",
"5 c #6F706F",
"6 c #6F6D70",
"7 c #716F71",
"8 c #6F7170",
"9 c #747374",
"0 c #777478",
"q c #797679",
"w c #7C7A7C",
"e c #7F7D80",
"r c #817F82",
"t c #838184",
"y c #878488",
"u c #8A878B",
"i c #8B898C",
"p c #8F8C90",
"a c #908E91",
/* pixels */
"uuuiuiuiuiuuiuit9qqqqqiiuuuuiuiw00riiuuiy9qwiit***",
"iuuuiuiuuuuuiiit9q9q9wuuiuuiuuiw00tuuiuut9qwiit***",
"uiiiiuiuiiiiuiitqqqqqwiiiiiiuuiw00yiuuuutqqwiiy***",
"uui9555969791:<1444444888886<;<;-*4975594745494@@@",
"uuu915114444;&&-444444141141;%%;==<441144443441.O@",
"iuu944454444<*&<854444645554;%&&-=1445544444473.O@",
"www744;&==**%@@#%%%#%%%#%&;&%$$$%%%*&-;-<31<-;-X@O",
"qq9644&@##%%@O. O...O. .X#$$$$%$##%$#%&&-<<,**&X.@",
"qqq944*@%@@#@          . @@@##@#@#@@@&-*,,<<&*%..@",
"9q9<;<%@@1qq99999961<112190q00q4139qq1$&,764;<-OOO",
"qqq-&*@@ qapippiuiuqqqqqwiippiieqqyia9o@,wq9<2,@@O",
"9qq-&-@@ 9iuiuiuiiy0qqq0wiiiiiiw09yia9@$,qq7<<-.X.",
"rrr1:<@@ 5piyerrwqq996646wwwwww977990,##,w0714<@@.",
"iuu945%. 8iie909441444<<<114141544>&%%%@,wq9441O@O",
"uuu544%. 9iit9q9444544<22446444445:**%##,qq9441.X@",
"uui944%. 5iue997441<1<>><334444444<-:=##,qq9441.@O",
"uiu744%. 9iiw373<<>=&&&&*<1,<2,4444<2*##,q07451@..",
"iiu946#. 9piw443<<<**--*-<22<<<3442<3-##,000341@O@",
"yyy424%. 5uyq444<2;%%%&%&---2434441,<=%#,ewq341@@X",
"09q-%&@@ 1q99443<2- ....X OX7qq644>&*%#@3apr,1-.O@",
"qqq-&*@@ 1007444<2-O@O@XOO@+700644<&*%#@3pur<2<.@@",
"q0q,--#@ 1ww9443,<-.@OO.@+@+0ww744;&-%#.3uur,<-o.X",
"qqq444#. 9iiq,1:&*%XO@X@O@@@riu9443,3=  2pur=*& @O",
"qqq444%. 9ipq,<>=-&X@O@XO.@+rii9443<3=  2aur&*&..O",
"9qq444%. 7iiq<3,=-%++@++@.@+ruu0341<2=  <pie&-%XO@",
"qqq,&-@. 1wq9143<1- @+@+O.O+7qq3<<-*-#  2pir;<<O@X",
"qqq-*-@@ <q09443,2>++@++@@O+7q03<<-&*#. 2pie<<<O.X",
"9qq-&-@@ 2wq5353<2- ++++ @@+7wq3<3>*-%. 2iir<2,@O@",
"yuy:&*$#@4wq9444<:2979rrr79700q744,**%  2pur,2>OO.",
"uuu<&*%%@4wq9444<<3qqqipuwqqq00744,%*@  <pir<2,O@@",
"uuu:&=%#@4q95443<<3qqruiuq9qqq0744<&-%O 2pir,2,..O",
"uiu4<4&#@9uuq143344q00q99qqq747311-&*#O >rwq,1,@X@",
"iiu844*#@qpie154439qq91449qq434<<<-**#@ =007,2,+@O",
"iuu544*%@qiie454545qqq544qqq5453<2-**%@ >wq722,+X@",
"iuu944*#@qpiq11<<-<443<:>444<;<----*-%#@,w00332..O",
"uuu544=%@qiiq><;=%-<,,%&*:<<*&&&****=%%#,007342@@X",
"iuu944&#@qaaw,3,-*-222**-122-***-*-*-%%@,wq9454.X@",
"iiu844-%%2771=-*%%====###%=%%%%@$%%%&&%@,qq913<.@O",
"uuu845;*-%@#####%%@ +@ .@   . . @.@%@%%#,wq7,<,o.O",
"iii514*$%%@#@@##@@@               @@@%@@,wq9,1,@@O",
"yrr9594444441,>,<-<3<21<<113,2<>>-,,,,;>2995<<,.@.",
"000qqqupiiiirqqqqqriaipiaiiiappr0wqqqwqq9443<1,@X@",
"000qq9yiiiiir0qq0qwiuiiuiuiiuuie00qqqqqq9443<2,o.O",
"000999rrttttw799659trrytttryrrr0977777994113,<-X@X",
"q9q2,<,,,<441,<,&&-<<<344444<<,<,,,%&-<<;&&&**=@O@",
"qqq32<2224443<<<*--3<2444443212<22<*=;22<*****&..@",
"9992,,,,,211<>,-%%*,,,113141<-,,,,*%%-<,-&&&&&%X.O",
"***@.@.++@.@o@O@OO@O@O.@.oo.XX.o.o@o...X.X ..XXX@X",
"**-@..@..@.@.@.O@.O@.X@.@X@@X@OOX@O@X@.XO@XO@.@X@.",
"***@.@@.@.@.O..@@OO.O@@OO..OO..@@XO.@OO@.@@.@OOX@O"
};
