/* XPM */
static char *_1ad4753aa0d4036fd0b3448180def39ZQPXktA6eQ3bxOre[] = {
/* columns rows colors chars-per-pixel */
"50 50 94 2 ",
"   c #464546",
".  c #474647",
"X  c gray28",
"o  c #474648",
"O  c #474748",
"+  c #484748",
"@  c #484848",
"#  c #4C4A4C",
"$  c #4D4B4D",
"%  c #4C4C4C",
"&  c #4D4C4D",
"*  c #4E4E4E",
"=  c #4F4E4F",
"-  c gray31",
";  c #505050",
":  c #515051",
">  c #515151",
",  c #535353",
"<  c #555455",
"1  c #555555",
"2  c #545654",
"3  c #555755",
"4  c #545854",
"5  c #555955",
"6  c #565856",
"7  c #575A56",
"8  c #575A57",
"9  c #575B57",
"0  c #585A57",
"q  c #585B57",
"w  c #595A59",
"e  c #5B5B5B",
"r  c #5A5C5A",
"t  c #5B5C5B",
"y  c #5C5F5C",
"u  c #5F605E",
"i  c #5F615F",
"p  c #5F5F60",
"a  c #605F60",
"s  c #625F62",
"d  c #606160",
"f  c #616361",
"g  c #626062",
"h  c #636163",
"j  c #626362",
"k  c #636164",
"l  c #646364",
"z  c #646564",
"x  c #646664",
"c  c #666466",
"v  c #676467",
"b  c #676567",
"n  c #676867",
"m  c #676668",
"M  c #6A676A",
"N  c #696869",
"B  c #6A6A69",
"V  c gray42",
"C  c #6B6C6B",
"Z  c #6C6B6C",
"A  c #6C6A6D",
"S  c #6E6C6E",
"D  c #6E6E6F",
"F  c #6F6F6F",
"G  c #706E70",
"H  c #726F72",
"J  c gray44",
"K  c #717171",
"L  c #737173",
"P  c #747374",
"I  c #757475",
"U  c #767477",
"Y  c #777477",
"T  c #777577",
"R  c #787578",
"E  c #787678",
"W  c #7A777A",
"Q  c #7B787B",
"!  c #7B797B",
"~  c #7C797C",
"^  c #817E81",
"/  c #827F82",
"(  c #838083",
")  c #848184",
"_  c #858185",
"`  c #878387",
"'  c #878487",
"]  c #878488",
"[  c #888488",
"{  c #888588",
"}  c #8B878B",
"|  c #8B888B",
" . c #8B888C",
".. c #8C898D",
/* pixels */
"E E E [ [ [ | | [  .| | | | | | | | | ' | [ | | | [ | [ | | | ' [  . .| | ( L E E E E E E E P   +   ",
"E E E [ ..| [ |  . .| [ | [ [ | ' | | |  . .| [ | | | [ | | | |  . .| [ | ( E E E E E E E E P + + + ",
"E E E [ [ | | | ]  .[  .|  .[ | | | | '  .[ ] [ | | ' | ' | ' |  .] ] | | ^ I E E E E E E ~ I o + + ",
"] [ [ P J J E ! ! E J C I ~ ! ! ! ! ! ! ~ ~ ~ ! ! ! ! ! I J J J J J J G J J J C D G G J E E J o + + ",
"| | ] J B B I E E J C C G E E E I E E E E I E E E E E I C C B C Z Z Z C C Z B C Z C C J I ! J o + + ",
"[ |  .J B C I E E G Z Z L E E E E E E E E E E E E E E ! J C C C Z Z Z Z B B G C Z B C D E ! P   + + ",
"| |  .E L E J G J J E L L J G J G C J J G C J J G C J J Z C B P L P P L E D c c m C C Z G C Z o + + ",
"[ | ] ! E E G B Z L E E L B B Z C C Z Z Z C Z Z Z Z Z Z Z Z Z P ! E E E E D k k c Z J B Z C m o + + ",
"| [ | ! E E J B C L E ! G Z Z B C Z Z B C J C A Z Z C C C C B P E E ! E ! G p k c G C J G C M @ + + ",
"| | ..I J J V M M A J G P P P P G P P C C C c m c C J Z P P L J G J Z Z Z B A B B c c c c M k @ + + ",
"| [ [ J C B c h h m C B J E E E E E P A C B l k m Z Z Z E E ! C B C c k h M A G B p h k h c t @ + + ",
"| | ..J C C c h l B G C P ! E E ! E E B C Z h k h B C Z R Q ! J C G M k k B C B B l c c h c h @ + + ",
"| [ ..C M M h y u h B M B G C G P G P J L J m B M C B J A C G A B M m l B c M M l t u h c B k @ + + ",
"| [ [ B s l w 0 5 i l l k s h c A B J E E E A Z B C Z Z k k s h l k M G G M s l i 9 5 w G C c @ + + ",
"| | | B k l e 0 5 i h l l l h c G Z J ! E E B C G Z C Z M c c s h p B C C M c m i 5 4 t G A M + + + ",
") ) ) B h l t w 0 h m m m m M M B M C C G G B Z c C B c c m c A Z A B B B h t i i h i f M V l + + + ",
"R E P m k h y 5 4 c J C C B V B k l s l l l l s l l c h C G B I E ~ Z s c t 3 5 d G C C k l s @ + @ ",
"E E ~ M k c y 0 9 m C C C G C C k l v v l l l l M c c c C Z A E E ~ Z l c h 5 0 d C G Z l v t @ + O ",
"G G F l s h w 0 5 f c c M n c x a s s p i s h h t s s t c m c G G J c s i e 5 0 i B c c p k t o + + ",
"5 5 5 0 5 5 5 w q 4 0 0 5 0 5 0 5 5 0 0 4 0 5 0 w 3 5 w 0 5 5 4 5 5 5 5 9 w w 5 5 5 5 5 9 w 3 + + + ",
"5 0 5 y 5 w 5 5 9 5 q 0 w 0 0 0 0 0 5 0 0 w w 5 y 5 w 0 5 5 y 5 0 5 0 q 0 0 0 0 5 w w 5 w 5 5 + o + ",
"w 5 5 5 0 0 5 0 4 9 5 5 5 5 0 5 3 0 0 3 3 5 3 3 5 3 5 5 0 0 0 5 0 0 0 5 0 5 3 0 5 4 3 0 5 w 3 + + + ",
"; ; = ; ; ; @ + o o + o # ; ; ; ; ; -   + o @ +     o O ; ; - = ; ; ; ; ; ; ; ; ; ; ; ; - ; ; ; < ; ",
"= = ; = ; ; @           # ; ; ; = = -   o o + + + o +   - = ; = ; = ; = = - ; = ; = ; ; ; - ; ; = ; ",
"5 < 5 < < 3 ; # - # - # ; 3 3 ; 3 5 ; @ # # @ @ + # o - ; 3 < < 3 ; 3 3 3 < 3 , < 5 ; 3 < 3 3 5 < < ",
"[ [ ' [ _ [ [ _ [ [ ' _ [ [ ' [ [ [ _ I E G @   # L R P _ ] ] [ [ [ [ [ [ _ [ [ [ [ [ [ [ _ ] ] ] ] ",
"[ ..| | | | ..} | | } } | | | | [  .[ E ~ J O X # E E E [  .} } | | } }  .} } | } } | |  .}  . .]  .",
"[ ..[ | | | [ | [ | } [ [ | | |  . ._ E ~ G O   - J E E [ ..} [  .[ } } } } [ } } [ } } } [  .] } } ",
"M Z Z E ! ~ ! ! ~ ~ ~ ~ ! ~ ~ E G G G C J B     - _ [ [ ~ ~ ! J G J I ! E ! ~ ~ ~ ~ ~ ~ ! ! E J G J ",
"s l s P I E E I E E E P E E E G V V Z C Z l o   - [ | ..! I E G Z C I E E E E E E P E E E E P B Z Z ",
"l l l P E ! E E E E E E E E ! P V V Z C G B     @ [ | ] ! E E G B C I E E E ! E E E E E E E I G C J ",
"P H P G G C J G G P E E I C F G V V V b c h     - '  .] P G G B m k I E ~ C c M G E E P D D G C C B ",
"~ Q E Z Z Z Z Z B P E E G B Z Z C C C h l d +   # _ ....G B Z c l l G E E C l s Z E E E A Z C C Z Z ",
"E E E G B Z C B A J ! E P Z Z Z C C C c c a +   # [ ..[ J Z G l l s G ~ E J l s Z E E P B Z C B Z A ",
"G J G L P P P L P P G G D B G B c n c w e w +   - [ | | Z b v M M M Z Z B A M B Z J G G A C G L L I ",
"C B A E ! E E E E G B Z Z A B B h c h 5 w 3 + + @ [ | [ M s l V B G l l h c G Z Z Z G B C A J E E E ",
"A C Z E ! E E E E J Z B D G D l h c h 5 0 5 +   = [ ..[ C h l V G B m h k M C B B C Z Z C A C ! E E ",
"C C Z J J P J P K Z Z G B l B B c M c y s w +   - ~ / / M l l M m B B m c A I J G B G A m B B G G G ",
"C Z C Z Z C C B Z Z C C A l p m G A Z c h h +   @ I E E M l l s k l B B C J ! ! P Z Z B l l k s s l ",
"G Z C Z C C J C J J B A m l k B Z Z Z c c t + o - J E E l l l l k k B G C J ~ E P Z Z M l l l l l l ",
"B B M M B C c c f c B C k i p h c x x h c t + o % P ! E B c c c c m m B m Z L G J B C B B c c c v l ",
"k k k l k k 9 5 5 i c k t 9 5 5 0 5 y h c h + o % U U E C C J C G C c h c k k s c Z B Z V V B l l l ",
"m k l l l l y 5 9 i m l i 5 0 w 0 5 y l m h X o % E ! E J Z Z J G C B h h c m k B Z J D B D D l k l ",
"s s i s s l w 4 5 t s h w 5 w 5 0 5 w h s t X @ % D J Z B B c M l n h s h h s p h n l B m V c i l t ",
"5 0 5 5 w 5 w 5 5 w 3 0 5 y 5 5 w 5 w 5 0 3 + +   3 9 < 0 0 5 5 9 5 q 5 6 9 3 6 9 3 9 6 9 9 5 9 y 4 ",
"w 5 5 w 5 w 5 y w 5 w 5 0 5 5 w 5 w 5 w 9 5 +   o 9 9 9 5 w 0 0 5 9 5 y 9 9 9 9 9 6 9 9 5 9 9 9 5 w ",
"w 5 q 3 5 3 0 5 5 5 5 w w 5 w 5 0 5 5 3 5 3 + o + 3 9 3 3 3 3 5 5 0 5 0 9 3 9 9 9 < 9 3 9 9 3 3 w 5 ",
"- ; ; ; ; ; ; ; ; ; ; ; - ; ; - ; ; -   o + + + + o o   + + o - ; = - - ; ; = ; ; = ; ; = ; ; = ; ; ",
"; ; ; ; ; ; ; ; ; ; ; ; ; ; ; ; ; ; - o o O @ @ + + + + + +   - ; ; ; ; ; ; ; ; ; ; ; ; ; ; ; ; ; ; ",
"; ; ; ; ; ; ; ; ; ; ; ; ; ; ; ; ; ; ;   o O + @ + + + + + +   - ; ; ; ; ; ; ; ; ; ; ; ; ; ; ; ; ; ; "
};
