/* XPM */
static char *f731407a0e3b40b59d299309381a536cebjqpbEDRZ4WcumR[] = {
/* columns rows colors chars-per-pixel */
"50 50 78 1 ",
"  c gray24",
". c #464546",
"X c #474748",
"o c #484748",
"O c #4D4D4D",
"+ c #4F504F",
"@ c #514F51",
"# c #525252",
"$ c #565956",
"% c #585B57",
"& c #585758",
"* c #5B5C5B",
"= c #5E605E",
"- c #5F5E60",
"; c #615F61",
": c #646264",
"> c #646464",
", c #656665",
"< c #676467",
"1 c #666567",
"2 c #676567",
"3 c #676867",
"4 c #686768",
"5 c #696769",
"6 c #686868",
"7 c #6A686A",
"8 c #6A696A",
"9 c #6A6A6A",
"0 c #6A6B6A",
"q c #6B6A6B",
"w c #6B6B6B",
"e c #6B6C6B",
"r c #6D6B6E",
"t c #6D6D6D",
"y c #6D6E6D",
"u c #6E6C6E",
"i c gray43",
"p c #706D70",
"a c #706E70",
"s c #716F71",
"d c #726F72",
"f c gray44",
"g c #717071",
"h c #717171",
"j c #737173",
"k c #727272",
"l c #737273",
"z c #747174",
"x c #747374",
"c c #767476",
"v c #767576",
"b c #777477",
"n c #777578",
"m c #787678",
"M c #797679",
"N c #797779",
"B c #7A777A",
"V c #7B797B",
"C c #7C797C",
"Z c #7C7A7C",
"A c #7D7A7D",
"S c #7E7B7E",
"D c #7F7D7F",
"F c #817E81",
"G c #827F82",
"H c #838083",
"J c #848184",
"K c #868386",
"L c #888588",
"P c #898689",
"I c #8A868A",
"U c #8A878A",
"Y c #8B878B",
"T c #8B888B",
"R c #8C888C",
"E c #8C898C",
"W c #8E8B8F",
"Q c #918D91",
/* pixels */
"#O#3t8HETPYTM;:zEYYYYYYYLeetHTYTTPTPEDxbNNNbNbxooo",
"##O8t8HEPYPTM;;zEYLYYYLTYt8tLTTYPTPTEDbNNbNNbVfooo",
"O#O8t8HEYYYTV-:kYYYYYYYTLtt8JTYTLTTTEHbbNbvNNVfooo",
"$$$8tttsfkak:##-kskVVVVVv111vVVfffbZVxeaxVbxef6ooo",
"$$%8et88qq8t-O+&r8tMvMvMv1::xMvt88xbbaq4tNbxtt6ooo",
"$$$8t8tt8sts;O+*t8tVMMMvz1::vVVs6txNMxqqxbVx6t6ooo",
"DDDt8t*%&&&&*;;:tetttkMMM888:==8q8tak>&&=aattt6ooo",
"TTEk8t&O+++O*2:4tt8t8tvMMtee%$$3ttq8a*OO*f6eee1ooo",
"TEEkqs&OOOOO*1:8ett8ttbbMtet%$$3araqa;O+*arttt1ooo",
"zzz;**184kMz2@@*t8ttttkktt8t113**&***%++&41618:.oo",
";;:#+OsAMJEQr .#teet8e4ttt8ette$O+++++++&1:::1*Ooo",
"::;#OOtMMJEE4 .&ftt8tttttettt8t&O++#+++O&4:::1:.oo",
"nMM:*-tstMAZa;:;*==84qtqq614eet***#@+&=;;:1:*;%.oo",
"EEEktt:::283kVAtOO&:::qtt1::8tt4:1&++=at4::;$%*.oo",
"YYYk8e1::4trkMZ8O+#::4ttt:::8tt1:4&OO*atq:4:%%&ooo",
"JJJr881::4r4tsk2&&*8:4>>>q88t8t1::;;:=;:;&****&ooo",
"MzM4:::::::::::::11rt6$$%vVbt8t1::kAV4O+O. +<:;ooo",
"MMb4::4:4:4:::4>::1tt8%$*vMVttt1::sMV1O+Ooo@<4;oo.",
"kks:::*::;*:;;=:4:144>$$%tkt8881;;rxx:O$O..O;;*ooo",
":::$%&$$$$$$%&$*::*$$$&&%$$$:::*$$;::*&%#.oO++Oooo",
":::*$&%%&&%%&&$=4<;&&%$$%$&$:1:*$$=11*$*#ooo#@+o..",
":;;*$$$$$$$$$&$%:;;$$$$%$$$%;::%$&*::*$&+ooO+++oOo",
"+@#@+#Oooo..O++++#+..ooo.o.oO#+++@@+++@@@#@@#@#@##",
"++++O+...oo.O#+++++..oooO..OO#O++#++++OO++++++++OO",
"&#$$#&OOOOoo+###O#+ooooo.Ooo$$#+@+###&$##&#%&&$**&",
"LJLLJJYJT4oO>bba;:-+#Oo.o188kvz&o.<MzALYJYJHJJFJHG",
"EYYLYLYYW6OO4ZNs4:;O#OooO8ttbMV&. 4AbFEYEEYYYYRYEY",
"YYYYYYYYE1OO1bNk;4:+++o.o88ebbM&..4AbFEYTYYYYYYERR",
"kkkkakbDZ>$$:sttr84$$$.oOzzb814&OO;4:tktxVVzkakVVV",
"884e88kvb>$$:tq88s4$&$o.OMMM1::&@+*::1t8tVMz88tzbz",
"8t8et8vMV1#$:tttrt:%&$ooOzCM4:1$@+*::6e8kVVbtttVMM",
"zxbxbzktefff1$&=tt8*;-ooo444&&#*;*rxkxvvktt8%$*ast",
"MMMMbMt88vVA1OO%t88:4;o.o;<:$OO:1:sAVMbvket1O+$88e",
"MMMMMbke8kMV1O#*stt:1:o.o;;;#OO*:;sMbMVVvet8OO$8et",
"fktkkkteetkk*.O#**&+#@+O@MFA4:*tksskffkk4***:::88t",
"8e8ee8ett88t*..O++O.oo@+&YERkttbbVa8t88t:.o%ttttte",
"ttet8tt8tttf&  .OOo...+O&JYLa8evMMktt88t:#O&teeett",
"tettetete>:=4sr4:44:;;OO#JYYkqtfkkt8ttfk1OO&866t8t",
"ett8tt8et=$#zQEYMVBVAx..OJYYs8t8q8te8kVV8O+&:::tqt",
"t8et8tttt=$$zEEHbMMbMso.OYRRk8ttttet8kbV8O@&6::ttr",
"848686>:1:>:kHDVkxkasqo.OFHHt18tqrr44kzV8OO#4::q88",
":::::>%$$tVVk368t84::;ooOxMM4::8tr4::tMV1..+::::::",
"4::411*&$tVVktttttq;<;..OxMM::4qtt4::sVV1..O<<<:::",
":;;;:=**$3fat6e888844:ooOsxx::*164:::4kk:..O;*;::;",
"$$$$$$=41*$$*1::::4qr<oo.;::%$$$$$=>:*$$#.o...o%$$",
"&&%%$$:::*$&=11:::4at4o..:<4&$%$&%*11;$*#.oo..O&$$",
"$$$$$&;::&&$*;:;:=:88:o.O;;;&%&*$&*::%$*#oO..OO$$$",
"+++O+++#++++##+++#O.o.ooooooo..+++###+O++++#O++O#+",
"+#+@+++@+@+#+@++@#+.oooooooooo.O#++#+@+#@#++@#+#+@",
"+++#@#@+#+@+@+#++#O.oooooooooo.+#+@++@+++@+@#O@+@+"
};
