/* XPM */
static char *_9094d59dfaf49b0b1f0affb53e05792KtXfsCj9la1lstJF[] = {
/* columns rows colors chars-per-pixel */
"50 50 256 2 ",
"   c black",
".  c #010101",
"X  c #020202",
"o  c gray1",
"O  c #040404",
"+  c gray2",
"@  c #060606",
"#  c #070707",
"$  c gray3",
"%  c #090909",
"&  c gray4",
"*  c #0B0B0B",
"=  c #0C0C0C",
"-  c gray5",
";  c #0E0E0E",
":  c gray6",
">  c #101010",
",  c #111111",
"<  c gray7",
"1  c #131313",
"2  c gray8",
"3  c #151515",
"4  c #161616",
"5  c gray9",
"6  c #181818",
"7  c #191919",
"8  c gray10",
"9  c #1B1B1B",
"0  c gray11",
"q  c #1D1D1D",
"w  c #1E1E1E",
"e  c gray12",
"r  c #202020",
"t  c gray13",
"y  c #222222",
"u  c #232323",
"i  c gray14",
"p  c #252525",
"a  c gray15",
"s  c #272727",
"d  c #282828",
"f  c gray16",
"g  c #2A2A2A",
"h  c gray17",
"j  c #2C2C2C",
"k  c #2D2D2D",
"l  c gray18",
"z  c #2F2F2F",
"x  c gray19",
"c  c #313131",
"v  c #323232",
"b  c gray20",
"n  c #343434",
"m  c #353535",
"M  c gray21",
"N  c #373737",
"B  c gray22",
"V  c #393939",
"C  c #3A3A3A",
"Z  c gray23",
"A  c #3C3C3C",
"S  c gray24",
"D  c #3E3E3E",
"F  c #3F3F3F",
"G  c gray25",
"H  c #414141",
"J  c gray26",
"K  c #434343",
"L  c #444444",
"P  c gray27",
"I  c #464646",
"U  c gray28",
"Y  c #484848",
"T  c #494949",
"R  c gray29",
"E  c #4B4B4B",
"W  c #4C4C4C",
"Q  c gray30",
"!  c #4E4E4E",
"~  c gray31",
"^  c #505050",
"/  c #515151",
"(  c gray32",
")  c #535353",
"_  c gray33",
"`  c #555555",
"'  c #565656",
"]  c gray34",
"[  c #585858",
"{  c gray35",
"}  c #5A5A5A",
"|  c #5B5B5B",
" . c gray36",
".. c #5D5D5D",
"X. c gray37",
"o. c #5F5F5F",
"O. c #606060",
"+. c gray38",
"@. c #626262",
"#. c gray39",
"$. c #646464",
"%. c #656565",
"&. c gray40",
"*. c #676767",
"=. c #686868",
"-. c DimGray",
";. c #6A6A6A",
":. c gray42",
">. c #6C6C6C",
",. c #6D6D6D",
"<. c gray43",
"1. c #6F6F6F",
"2. c gray44",
"3. c #717171",
"4. c #727272",
"5. c gray45",
"6. c #747474",
"7. c gray46",
"8. c #767676",
"9. c #777777",
"0. c gray47",
"q. c #797979",
"w. c gray48",
"e. c #7B7B7B",
"r. c #7C7C7C",
"t. c gray49",
"y. c #7E7E7E",
"u. c gray50",
"i. c #808080",
"p. c #818181",
"a. c gray51",
"s. c #838383",
"d. c #848484",
"f. c gray52",
"g. c #868686",
"h. c gray53",
"j. c #888888",
"k. c #898989",
"l. c gray54",
"z. c #8B8B8B",
"x. c gray55",
"c. c #8D8D8D",
"v. c #8E8E8E",
"b. c gray56",
"n. c #909090",
"m. c gray57",
"M. c #929292",
"N. c #939393",
"B. c gray58",
"V. c #959595",
"C. c gray59",
"Z. c #979797",
"A. c #989898",
"S. c gray60",
"D. c #9A9A9A",
"F. c #9B9B9B",
"G. c gray61",
"H. c #9D9D9D",
"J. c gray62",
"K. c #9F9F9F",
"L. c #A0A0A0",
"P. c gray63",
"I. c #A2A2A2",
"U. c gray64",
"Y. c #A4A4A4",
"T. c #A5A5A5",
"R. c gray65",
"E. c #A7A7A7",
"W. c gray66",
"Q. c #A9A9A9",
"!. c #AAAAAA",
"~. c gray67",
"^. c #ACACAC",
"/. c gray68",
"(. c #AEAEAE",
"). c #AFAFAF",
"_. c gray69",
"`. c #B1B1B1",
"'. c #B2B2B2",
"]. c gray70",
"[. c #B4B4B4",
"{. c gray71",
"}. c #B6B6B6",
"|. c #B7B7B7",
" X c gray72",
".X c #B9B9B9",
"XX c gray73",
"oX c #BBBBBB",
"OX c #BCBCBC",
"+X c gray74",
"@X c gray",
"#X c gray75",
"$X c #C0C0C0",
"%X c #C1C1C1",
"&X c gray76",
"*X c #C3C3C3",
"=X c gray77",
"-X c #C5C5C5",
";X c #C6C6C6",
":X c gray78",
">X c #C8C8C8",
",X c gray79",
"<X c #CACACA",
"1X c #CBCBCB",
"2X c gray80",
"3X c #CDCDCD",
"4X c #CECECE",
"5X c gray81",
"6X c #D0D0D0",
"7X c gray82",
"8X c #D2D2D2",
"9X c LightGray",
"0X c gray83",
"qX c #D5D5D5",
"wX c gray84",
"eX c #D7D7D7",
"rX c #D8D8D8",
"tX c gray85",
"yX c #DADADA",
"uX c gray86",
"iX c gainsboro",
"pX c #DDDDDD",
"aX c gray87",
"sX c #DFDFDF",
"dX c gray88",
"fX c #E1E1E1",
"gX c #E2E2E2",
"hX c gray89",
"jX c #E4E4E4",
"kX c gray90",
"lX c #E6E6E6",
"zX c #E7E7E7",
"xX c gray91",
"cX c #E9E9E9",
"vX c #EAEAEA",
"bX c gray92",
"nX c #ECECEC",
"mX c gray93",
"MX c #EEEEEE",
"NX c #EFEFEF",
"BX c gray94",
"VX c #F1F1F1",
"CX c gray95",
"ZX c #F3F3F3",
"AX c #F4F4F4",
"SX c gray96",
"DX c #F6F6F6",
"FX c gray97",
"GX c #F8F8F8",
"HX c #F9F9F9",
"JX c gray98",
"KX c #FBFBFB",
"LX c gray99",
"PX c #FDFDFD",
"IX c #FEFEFE",
"UX c white",
/* pixels */
"3X3X3X3X3X3X3X3X3X3X3X3X3X3X3X3X3X4X<X$X%X%X%X%X%X%X%X%X%X%X$X<X3X3X3X3X3X3X3X3X3X3X3X3X3X3X1X%X%X%X",
"3X3X3X3X3X3X3X3X3X3X3X3X3X3X3X3X3X4X<X$X%X%X%X%X%X%X%X%X%X%X$X<X4X3X3X3X3X3X3X3X3X3X3X3X3X3X1X%X%X%X",
"3X3X3X3X3X3X3X3X3X3X3X3X3X3X3X3X3X4X<X$X%X%X%X%X%X%X%X%X%X%X$X<X4X3X3X3X3X3X3X3X3X3X3X3X3X3X1X%X%X%X",
"3X3X3X]./.).~.!.!./.(.(.(.(.(.`.{.{.[.'.].].].].].].].]./.^.^.(.(.).Q.T.T.W.!.!.!.!.!.~.(.).Q.z.z.x.",
"3X3X3X/.Y.E.I.P.P.Y.E.R.R.R.R.Q.).(.).).).).).).).).).).W.R.E.R.R.E.K.D.F.J.I.P.P.P.P.I.R.W.P.e.r.r.",
"3X3X3X).E.Q.T.U.U.E.Q.Q.Q.Q.W.^.`.`.`._._.`.`.`.`.`.`.`.!.W.W.W.W.Q.P.G.H.L.Y.U.U.U.U.Y.W.!.U.u.u.u.",
"3X3X3X~.I.T.L.J.J.K.L.K.I.T.Y.T.E.R.E.!.!.Q.R.R.R.R.R.R.T.Y.Y.Y.Y.Y.T.T.T.R.E.E.E.E.E.E.W.Q.Y.z.z.z.",
"3X3X3X!.P.Y.J.H.H.H.H.G.L.U.U.I.I.I.Y.W.W.E.I.I.I.I.I.I.U.U.U.U.U.I.R.Q.W.W.W.W.W.W.W.W.W.Q.Y.n.n.n.",
"3X3X3XQ.L.U.H.F.G.G.G.F.K.Y.U.U.U.I.Y.W.W.E.U.U.U.I.I.I.I.I.I.I.I.I.R.W.W.W.W.W.W.W.W.W.W.Q.T.b.b.b.",
"3X3X3X`.!.^.!.Q.Q.Q.Q.!.R.I.U.Y.R.R.E.W.W.W.R.R.R.~.~.~.~.~.~.~.~.~.Q.W.W.W.W.W.E.T.T.T.T.R.I.b.b.b.",
"3X3X3X{.).`.`.`.`.`.`.'.!.I.U.T.W.W.W.W.W.W.W.W.Q._.`.`.`.`.`.`.`.`.~.E.W.W.W.W.R.I.U.U.I.U.L.b.b.b.",
"3X3X3X{.).`._._._._._.'.!.I.U.T.Q.W.W.W.W.W.W.W.Q._._._._._._._._._.!.E.E.E.E.W.R.U.U.U.I.U.L.b.b.b.",
"3X3X3X`.~.^.^.^.^.!.Q.!.R.I.U.Y.R.T.R.W.W.W.T.T.R.^.^.^.)._._._._._./.^.^.^.^./.Q.I.U.Y.T.R.I.b.b.b.",
"3X3X3X(.R.W.E.E.W.Y.I.I.I.U.U.U.U.I.Y.W.W.E.U.U.U.E.E.E.)._._._._._._._._._._.`.~.I.U.Y.W.Q.T.b.b.b.",
"3X3X3X(.R.W.W.W.W.T.I.U.U.U.U.U.U.I.Y.W.W.E.U.U.U.W.W.W.).`._.`.`.`.`.`.`.`._.'.^.I.U.T.W.Q.T.n.n.n.",
"3X3X3X`.Q.~.Q.W.W.R.T.T.T.T.T.T.T.T.R.W.W.E.T.T.T.W.W.W.^././.^.~.~.!.Q.Q.!.~.^.E.L.P.I.R.E.I.k.k.k.",
"3X3X3X{.).`.!.E.W.W.W.W.W.W.W.W.W.W.W.W.W.W.W.W.W.W.W.W.E.E.W.U.I.U.J.F.F.K.I.I.L.G.G.J.U.Y.J.t.t.y.",
"3X3X3X{.).`.!.E.W.W.E.E.E.E.E.E.E.E.W.W.W.W.E.E.E.E.E.E.W.W.W.Y.I.U.K.H.H.L.U.U.L.G.G.J.U.Y.J.i.i.i.",
"3X3X3X]./.).Q.W.W.Q.!.!.!.!.!.!.!.!.Q.E.E.E.!.!.!.!.!.!.W.W.W.T.Y.T.P.J.J.P.T.Y.U.L.L.P.Y.T.K.r.r.r.",
"3X3X3X/.R.E.W.W.E./.`._._._._._._.`./.I.I.T._._._._._._.Q.E.W.W.W.W.T.U.U.T.W.W.W.W.W.W.W.Q.P.5.5.6.",
"4X4X5X_.W.!.Q.Q.W.(.`.`.`.`.`.`.`.'.(.U.U.R.`.`.`.`.`.`.!.Q.Q.Q.Q.!.R.Y.Y.E.!.Q.Q.Q.Q.Q.W.!.I.5.5.6.",
";X:X:XW.L.I.Y.T.Y.Q.^.~.~.!.!.!.!.!.E.L.L.I.^.~.~.~.~.^.Y.I.U.I.P.I.K.H.H.K.I.P.I.U.I.U.Y.R.J.7.8.8.",
"G.G.G.e.5.5.k.n.b.b.b.n.h.y.u.u.u.y.d.n.b.b.b.b.b.b.b.b.a.y.i.9.6.6.6.6.6.6.6.5.0.i.y.s.n.n.c.u.u.u.",
"F.F.F.q.2.2.h.b.c.v.c.b.g.r.y.t.t.r.p.v.c.v.v.v.v.v.v.v.i.t.y.7.3.4.3.3.3.3.4.2.8.y.r.a.v.v.z.y.y.y.",
"L.L.L.a.e.e.c.B.M.N.B.V.x.s.f.f.g.f.k.B.B.B.N.N.N.N.N.N.h.d.f.y.r.r.r.r.r.r.r.e.u.f.s.k.B.B.m.p.p.a.",
"<X<X<X,X,X,X%X@X+X-X<X<X=X+X+X&X<X,X,X<X<X>X@X@X@X@X@X@X@X@X+X;X,X,X,X,X,X,X,X<X-X+X+X%X<X1X=XP.P.P.",
"4X4X4X4X4X5X-X%X%X,X4X5X>X%X%X:X5X4X4X4X4X2X&X&X&X&X&X&X&X&X%X1X5X4X4X4X4X4X4X5X<X%X%X-X4X5X>XU.U.Y.",
"3X3X3X3X3X3X=X$X$X>X3X3X:X$X$X-X4X3X3X3X3X1X%X%X%X%X%X%X%X%X$X<X3X3X3X3X3X3X3X4X>X$X$X=X3X4X:XU.U.U.",
"3X3X3X]./.)./.^.^./.(.(./.^.^./.(.(./.!.!.!.^.^.^.'.].].].].'.[.{.{.`.(.(.`.{.{.[.'.].].[.}.).f.f.f.",
"3X3X3X/.T.E.E.E.E.E.R.R.E.E.E.E.R.E.T.P.P.I.E.E.E.).).).).).).).).).Q.R.R.!.).(.).).).).(._.W.t.t.y.",
"3X3X3X(.E.Q.W.W.W.W.W.W.W.W.W.W.W.Q.E.U.U.Y.Q.W.Q._.`.`.`.`.`.`._.`.^.W.W./.`.`.`._._.`._.'.!.y.y.u.",
"3X3X3X(.R.W.T.Y.Y.E.W.W.R.Y.Y.Y.Y.T.U.J.J.K.L.L.L.R.R.R.R.R.R.Q.!.!.R.Y.Y.T.E.R.W.!.!.Q.R.E.U.z.z.z.",
"3X3X3X(.R.W.Y.I.I.R.W.W.T.I.U.U.U.U.P.H.H.H.H.G.H.I.I.I.I.I.I.R.W.W.Y.I.U.U.I.I.Y.W.W.R.I.U.L.n.n.n.",
"3X3X3X(.R.W.Y.I.I.R.W.W.T.I.U.I.I.I.L.F.G.G.G.G.G.I.I.I.I.I.I.E.W.W.T.I.U.I.I.I.Y.W.W.R.I.U.K.b.b.b.",
"3X3X3X(.R.W.E.R.R.E.W.W.E.R.R.W.^.~.~.Q.Q.Q.Q.Q.Q.~.~.~.~.~.~.Q.W.W.E.R.R.Q.^.~.^./././.~.^.E.b.b.b.",
"3X3X3X(.R.W.W.W.W.W.W.W.W.W.W.^.`.`.`.`.`.`.`.`.`.`.`.`.`.`.`.!.E.W.W.W.E.^.`._._._._._._.'.^.b.b.b.",
"4X4X4X).E.Q.W.W.W.W.W.W.W.W.E.~._._._._._._.`.`.`._._._.`.`.`.!.W.W.Q.Q.W./.'.`.`.`.`.`._.`.^.b.b.b.",
":X:X:X~.Y.R.T.T.T.T.T.T.E.W.E.~._._._._._.).!.!.!.^.^.^.!.Q.!.E.T.R.Y.I.I.T.E.E.W.!.Q.!.^./.W.b.b.b.",
"$X$X$XW.I.U.U.U.U.U.U.I.T.W.E.~._._._._._.(.I.I.I.E.E.E.U.I.I.I.U.U.K.G.G.G.F.F.J.I.I.U.E.W.Y.b.b.b.",
"%X%X%XE.P.I.I.U.U.U.U.U.R.Q.W.~.`._.`._.`.).U.U.U.E.W.E.U.U.U.U.U.U.K.G.G.H.H.G.K.U.I.Y.W.Q.T.n.n.n.",
"%X%X%X^.E.W.R.T.T.Y.U.U.Y.R.T.Q./././././.^.T.T.T.~.~.~.R.T.T.T.T.T.U.P.P.L.K.K.P.T.T.R.W.Q.Y.k.k.k.",
"%X%X%X]._.`.!.W.Q.T.U.U.U.U.I.T.W.E.E.E.E.W.W.W.Q._._._.!.W.W.W.W.W.Q.Q.Q.R.U.U.T.W.W.W.W.Q.I.t.t.y.",
"$X$X$X]._.`.!.W.Q.T.I.U.I.I.I.Y.W.W.W.W.W.W.W.W.W._._._.Q.E.E.E.E.E.W.W.W.T.U.U.T.W.W.W.W.Q.U.i.i.i.",
"=X=X=X_.^./.W.R.E.T.Y.Y.T.E.R.W.!.!.!.!.!.!.W.W.W.(.(.(.~.!.!.!.!.!.Q.W.W.T.U.U.Y.E.E.E.R.W.P.r.r.r.",
"3X3X3XQ.L.I.I.U.I.R.W.E.^.`._._._._._._._.).W.W.W.E.E.E.)._._._._._.~.E.W.T.I.U.U.I.I.I.I.Y.H.5.5.6.",
"4X4X4X^.U.T.Y.Y.U.E.Q.W./.'.`.`.`.`.`.`.`._.Q.Q.Q.Q.Q.Q._.'.`.'.'.'./.Q.!.E.Y.Y.Y.Y.Y.Y.U.T.J.5.5.6.",
">X>X>XY.F.H.K.L.L.U.T.Y.E.!.!.!.!.!.!.^.^.!.Y.Y.Y.T.Y.Y.Q.!.!.Q.W.Q.Y.P.I.K.H.H.H.J.J.K.L.P.F.7.8.8.",
"W.W.W.t.3.5.k.n.b.b.b.n.h.t.u.u.u.y.s.b.b.b.b.b.b.b.b.b.p.y.u.8.5.6.6.6.6.6.6.5.0.i.y.s.b.b.c.u.u.u.",
"W.W.W.t.4.5.k.n.b.b.b.n.h.t.u.u.u.y.s.n.b.b.b.b.b.b.b.b.p.y.u.9.5.6.6.6.6.6.6.5.0.i.y.s.b.b.c.u.u.u.",
"W.W.W.y.4.5.k.n.b.b.b.n.h.y.u.u.u.y.s.n.b.b.b.b.b.b.b.b.a.y.i.9.5.6.6.6.6.6.6.5.0.i.y.s.n.b.c.u.u.u."
};
